<svg viewBox="0 100 800 200" preserveAspectRatio="xMidYMid meet" xmlns="http://www.w3.org/2000/svg" height="50%" width="100%">
  <style>
    /* Existing styles */
    @keyframes moveLine1 {
      0% { stroke-dashoffset: 125; }
      50% { stroke-dashoffset: 0; }
      100% { stroke-dashoffset: -125; }
    }
    @keyframes moveLine2 {
      0% { stroke-dashoffset: 125; }
      25% { stroke-dashoffset: 125; }
      75% { stroke-dashoffset: 0; }
      100% { stroke-dashoffset: -125; }
    }
    @keyframes moveDot1 {
      0% { cx: 200; opacity: 0; }
      10% { opacity: 1; }
      40% { cx: 325; opacity: 1; }
      50% { opacity: 0; }
      100% { cx: 200; opacity: 0; }
    }
    @keyframes moveDot2 {
      0% { cx: 475; opacity: 0; }
      50% { cx: 475; opacity: 0; }
      60% { opacity: 1; }
      90% { cx: 600; opacity: 1; }
      100% { opacity: 0; }
    }
    .line1 {
      stroke-dasharray: 125;
      animation: moveLine1 4s linear infinite;
    }
    .line2 {
      stroke-dasharray: 125;
      animation: moveLine2 4s linear infinite;
    }
    .dot1 {
      animation: moveDot1 4s linear infinite;
    }
    .dot2 {
      animation: moveDot2 4s linear infinite;
    }
    text {
      font-family: -apple-system, BlinkMacSystemFont, "Segoe UI", Roboto, sans-serif;
    }
    .icon-label {
      font-size: 14px;
      font-weight: 500;
    }
  </style>

  <!-- Local Drive -->
  <g>
    <rect x="50" y="150" width="150" height="100" rx="10" fill="#F3F4F6" stroke="#4B5563" stroke-width="2"/>
    <text x="125" y="210" text-anchor="middle" class="icon-label" fill="#374151">Local Drive</text>
    <!-- Enhanced Drive Icon -->
    <path d="M105 160 h40 v30 h-40 v-30 M105 165 h40 M110 170 h5" fill="none" stroke="#4B5563" stroke-width="2"/>
    <circle cx="135" cy="175" r="3" fill="#4B5563"/>
  </g>

  <!-- NAS Server -->
  <g>
    <rect x="325" y="150" width="150" height="100" rx="10" fill="#EFF6FF" stroke="#2563EB" stroke-width="2"/>
    <text x="400" y="210" text-anchor="middle" class="icon-label" fill="#1E40AF">NAS Server</text>
    <!-- Enhanced Server Icon -->
    <rect x="375" y="160" width="50" height="35" rx="2" fill="none" stroke="#2563EB" stroke-width="2"/>
    <line x1="375" y1="170" x2="425" y2="170" stroke="#2563EB" stroke-width="2"/>
    <line x1="375" y1="180" x2="425" y2="180" stroke="#2563EB" stroke-width="2"/>
    <circle cx="385" cy="175" r="2" fill="#2563EB"/>
    <circle cx="385" cy="185" r="2" fill="#2563EB"/>
  </g>

  <!-- Cloud Storage -->
  <g>
    <rect x="600" y="150" width="150" height="100" rx="10" fill="#F5F3FF" stroke="#7C3AED" stroke-width="2"/>
    <text x="675" y="210" text-anchor="middle" class="icon-label" fill="#6D28D9">Cloud Storage</text>
    <!-- Improved Cloud Icon -->
    <path d="M650 175 
             C650 170, 655 165, 662 168
             C665 160, 675 160, 678 168
             C685 165, 690 168, 690 175
             C693 175, 695 178, 695 180
             C695 187, 692 190, 685 190
             L655 190
             C648 190, 645 185, 645 180
             C645 177, 647 175, 650 175Z"  
          fill="none" stroke="#7C3AED" stroke-width="2"/>
  </g>

  <!-- Animated Transfer Lines -->
  <path d="M 200 200 L 325 200" stroke="#3B82F6" stroke-width="3" fill="none" class="line1"/>
  <path d="M 475 200 L 600 200" stroke="#7C3AED" stroke-width="3" fill="none" class="line2"/>

  <!-- Animated Data Points -->
  <circle cx="200" cy="200" r="5" fill="#3B82F6" class="dot1"/>
  <circle cx="475" cy="200" r="5" fill="#7C3AED" class="dot2"/>
</svg>